<svg width="369" height="227" viewBox="0 0 369 227" fill="none" xmlns="http://www.w3.org/2000/svg">
<path d="M114.332 162.714C116.558 162.714 118.363 160.863 118.363 158.58C118.363 156.297 116.558 154.447 114.332 154.447C112.105 154.447 110.3 156.297 110.3 158.58C110.3 160.863 112.105 162.714 114.332 162.714Z" fill="#6C63FF"/>
<path d="M196.065 14.5563C198.291 14.5563 200.096 12.7057 200.096 10.4229C200.096 8.14013 198.291 6.28955 196.065 6.28955C193.838 6.28955 192.033 8.14013 192.033 10.4229C192.033 12.7057 193.838 14.5563 196.065 14.5563Z" fill="#E6E6E6"/>
<path d="M216.472 14.5563C218.699 14.5563 220.503 12.7057 220.503 10.4229C220.503 8.14013 218.699 6.28955 216.472 6.28955C214.246 6.28955 212.441 8.14013 212.441 10.4229C212.441 12.7057 214.246 14.5563 216.472 14.5563Z" fill="#E6E6E6"/>
<path d="M236.879 14.5563C239.105 14.5563 240.91 12.7057 240.91 10.4229C240.91 8.14013 239.105 6.28955 236.879 6.28955C234.652 6.28955 232.847 8.14013 232.847 10.4229C232.847 12.7057 234.652 14.5563 236.879 14.5563Z" fill="#E6E6E6"/>
<path d="M257.286 14.5563C259.512 14.5563 261.317 12.7057 261.317 10.4229C261.317 8.14013 259.512 6.28955 257.286 6.28955C255.059 6.28955 253.254 8.14013 253.254 10.4229C253.254 12.7057 255.059 14.5563 257.286 14.5563Z" fill="#E6E6E6"/>
<path d="M277.692 14.5563C279.918 14.5563 281.723 12.7057 281.723 10.4229C281.723 8.14013 279.918 6.28955 277.692 6.28955C275.466 6.28955 273.661 8.14013 273.661 10.4229C273.661 12.7057 275.466 14.5563 277.692 14.5563Z" fill="#E6E6E6"/>
<path d="M196.065 35.7421C198.291 35.7421 200.096 33.8915 200.096 31.6087C200.096 29.3259 198.291 27.4753 196.065 27.4753C193.838 27.4753 192.033 29.3259 192.033 31.6087C192.033 33.8915 193.838 35.7421 196.065 35.7421Z" fill="#E6E6E6"/>
<path d="M216.472 35.7421C218.699 35.7421 220.503 33.8915 220.503 31.6087C220.503 29.3259 218.699 27.4753 216.472 27.4753C214.246 27.4753 212.441 29.3259 212.441 31.6087C212.441 33.8915 214.246 35.7421 216.472 35.7421Z" fill="#E6E6E6"/>
<path d="M236.879 35.7421C239.105 35.7421 240.91 33.8915 240.91 31.6087C240.91 29.3259 239.105 27.4753 236.879 27.4753C234.652 27.4753 232.847 29.3259 232.847 31.6087C232.847 33.8915 234.652 35.7421 236.879 35.7421Z" fill="#E6E6E6"/>
<path d="M257.286 35.7421C259.512 35.7421 261.317 33.8915 261.317 31.6087C261.317 29.3259 259.512 27.4753 257.286 27.4753C255.059 27.4753 253.254 29.3259 253.254 31.6087C253.254 33.8915 255.059 35.7421 257.286 35.7421Z" fill="#E6E6E6"/>
<path d="M277.692 35.7421C279.918 35.7421 281.723 33.8915 281.723 31.6087C281.723 29.3259 279.918 27.4753 277.692 27.4753C275.466 27.4753 273.661 29.3259 273.661 31.6087C273.661 33.8915 275.466 35.7421 277.692 35.7421Z" fill="#E6E6E6"/>
<path d="M175.659 56.9278C177.885 56.9278 179.69 55.0772 179.69 52.7944C179.69 50.5116 177.885 48.661 175.659 48.661C173.432 48.661 171.627 50.5116 171.627 52.7944C171.627 55.0772 173.432 56.9278 175.659 56.9278Z" fill="#E6E6E6"/>
<path d="M196.065 56.9278C198.291 56.9278 200.096 55.0772 200.096 52.7944C200.096 50.5116 198.291 48.661 196.065 48.661C193.838 48.661 192.033 50.5116 192.033 52.7944C192.033 55.0772 193.838 56.9278 196.065 56.9278Z" fill="#E6E6E6"/>
<path d="M216.472 56.9278C218.699 56.9278 220.503 55.0772 220.503 52.7944C220.503 50.5116 218.699 48.661 216.472 48.661C214.246 48.661 212.441 50.5116 212.441 52.7944C212.441 55.0772 214.246 56.9278 216.472 56.9278Z" fill="#E6E6E6"/>
<path d="M236.879 56.9278C239.105 56.9278 240.91 55.0772 240.91 52.7944C240.91 50.5116 239.105 48.661 236.879 48.661C234.652 48.661 232.847 50.5116 232.847 52.7944C232.847 55.0772 234.652 56.9278 236.879 56.9278Z" fill="#E6E6E6"/>
<path d="M257.286 56.9278C259.512 56.9278 261.317 55.0772 261.317 52.7944C261.317 50.5116 259.512 48.661 257.286 48.661C255.059 48.661 253.254 50.5116 253.254 52.7944C253.254 55.0772 255.059 56.9278 257.286 56.9278Z" fill="#E6E6E6"/>
<path d="M277.692 56.9278C279.918 56.9278 281.723 55.0772 281.723 52.7944C281.723 50.5116 279.918 48.661 277.692 48.661C275.466 48.661 273.661 50.5116 273.661 52.7944C273.661 55.0772 275.466 56.9278 277.692 56.9278Z" fill="#E6E6E6"/>
<path d="M134.845 78.1136C137.071 78.1136 138.876 76.263 138.876 73.9802C138.876 71.6974 137.071 69.8468 134.845 69.8468C132.618 69.8468 130.813 71.6974 130.813 73.9802C130.813 76.263 132.618 78.1136 134.845 78.1136Z" fill="#E6E6E6"/>
<path d="M155.251 78.1136C157.478 78.1136 159.283 76.263 159.283 73.9802C159.283 71.6974 157.478 69.8468 155.251 69.8468C153.025 69.8468 151.22 71.6974 151.22 73.9802C151.22 76.263 153.025 78.1136 155.251 78.1136Z" fill="#E6E6E6"/>
<path d="M175.659 78.1136C177.885 78.1136 179.69 76.263 179.69 73.9802C179.69 71.6974 177.885 69.8468 175.659 69.8468C173.432 69.8468 171.627 71.6974 171.627 73.9802C171.627 76.263 173.432 78.1136 175.659 78.1136Z" fill="#E6E6E6"/>
<path d="M196.065 78.1136C198.291 78.1136 200.096 76.263 200.096 73.9802C200.096 71.6974 198.291 69.8468 196.065 69.8468C193.838 69.8468 192.033 71.6974 192.033 73.9802C192.033 76.263 193.838 78.1136 196.065 78.1136Z" fill="#E6E6E6"/>
<path d="M216.472 78.1136C218.699 78.1136 220.503 76.263 220.503 73.9802C220.503 71.6974 218.699 69.8468 216.472 69.8468C214.246 69.8468 212.441 71.6974 212.441 73.9802C212.441 76.263 214.246 78.1136 216.472 78.1136Z" fill="#E6E6E6"/>
<path d="M236.879 78.1136C239.105 78.1136 240.91 76.263 240.91 73.9802C240.91 71.6974 239.105 69.8468 236.879 69.8468C234.652 69.8468 232.847 71.6974 232.847 73.9802C232.847 76.263 234.652 78.1136 236.879 78.1136Z" fill="#E6E6E6"/>
<path d="M257.286 78.1136C259.512 78.1136 261.317 76.263 261.317 73.9802C261.317 71.6974 259.512 69.8468 257.286 69.8468C255.059 69.8468 253.254 71.6974 253.254 73.9802C253.254 76.263 255.059 78.1136 257.286 78.1136Z" fill="#E6E6E6"/>
<path d="M277.692 78.1136C279.918 78.1136 281.723 76.263 281.723 73.9802C281.723 71.6974 279.918 69.8468 277.692 69.8468C275.466 69.8468 273.661 71.6974 273.661 73.9802C273.661 76.263 275.466 78.1136 277.692 78.1136Z" fill="#E6E6E6"/>
<path d="M114.438 99.2993C116.664 99.2993 118.469 97.4487 118.469 95.1659C118.469 92.8831 116.664 91.0325 114.438 91.0325C112.211 91.0325 110.406 92.8831 110.406 95.1659C110.406 97.4487 112.211 99.2993 114.438 99.2993Z" fill="#E6E6E6"/>
<path d="M134.845 99.2993C137.071 99.2993 138.876 97.4487 138.876 95.1659C138.876 92.8831 137.071 91.0325 134.845 91.0325C132.618 91.0325 130.813 92.8831 130.813 95.1659C130.813 97.4487 132.618 99.2993 134.845 99.2993Z" fill="#6C63FF"/>
<path d="M155.251 99.2993C157.478 99.2993 159.283 97.4487 159.283 95.1659C159.283 92.8831 157.478 91.0325 155.251 91.0325C153.025 91.0325 151.22 92.8831 151.22 95.1659C151.22 97.4487 153.025 99.2993 155.251 99.2993Z" fill="#E6E6E6"/>
<path d="M175.659 99.2993C177.885 99.2993 179.69 97.4487 179.69 95.1659C179.69 92.8831 177.885 91.0325 175.659 91.0325C173.432 91.0325 171.627 92.8831 171.627 95.1659C171.627 97.4487 173.432 99.2993 175.659 99.2993Z" fill="#E6E6E6"/>
<path d="M196.065 99.2993C198.291 99.2993 200.096 97.4487 200.096 95.1659C200.096 92.8831 198.291 91.0325 196.065 91.0325C193.838 91.0325 192.033 92.8831 192.033 95.1659C192.033 97.4487 193.838 99.2993 196.065 99.2993Z" fill="#E6E6E6"/>
<path d="M216.472 99.2993C218.699 99.2993 220.503 97.4487 220.503 95.1659C220.503 92.8831 218.699 91.0325 216.472 91.0325C214.246 91.0325 212.441 92.8831 212.441 95.1659C212.441 97.4487 214.246 99.2993 216.472 99.2993Z" fill="#E6E6E6"/>
<path d="M236.879 99.2993C239.105 99.2993 240.91 97.4487 240.91 95.1659C240.91 92.8831 239.105 91.0325 236.879 91.0325C234.652 91.0325 232.847 92.8831 232.847 95.1659C232.847 97.4487 234.652 99.2993 236.879 99.2993Z" fill="#E6E6E6"/>
<path d="M257.286 99.2993C259.512 99.2993 261.317 97.4487 261.317 95.1659C261.317 92.8831 259.512 91.0325 257.286 91.0325C255.059 91.0325 253.254 92.8831 253.254 95.1659C253.254 97.4487 255.059 99.2993 257.286 99.2993Z" fill="#E6E6E6"/>
<path d="M277.692 99.2993C279.918 99.2993 281.723 97.4487 281.723 95.1659C281.723 92.8831 279.918 91.0325 277.692 91.0325C275.466 91.0325 273.661 92.8831 273.661 95.1659C273.661 97.4487 275.466 99.2993 277.692 99.2993Z" fill="#E6E6E6"/>
<path d="M114.438 120.485C116.664 120.485 118.469 118.634 118.469 116.352C118.469 114.069 116.664 112.218 114.438 112.218C112.211 112.218 110.406 114.069 110.406 116.352C110.406 118.634 112.211 120.485 114.438 120.485Z" fill="#E6E6E6"/>
<path d="M134.845 120.485C137.071 120.485 138.876 118.634 138.876 116.352C138.876 114.069 137.071 112.218 134.845 112.218C132.618 112.218 130.813 114.069 130.813 116.352C130.813 118.634 132.618 120.485 134.845 120.485Z" fill="#E6E6E6"/>
<path d="M155.251 120.485C157.478 120.485 159.283 118.634 159.283 116.352C159.283 114.069 157.478 112.218 155.251 112.218C153.025 112.218 151.22 114.069 151.22 116.352C151.22 118.634 153.025 120.485 155.251 120.485Z" fill="#E6E6E6"/>
<path d="M175.659 120.485C177.885 120.485 179.69 118.634 179.69 116.352C179.69 114.069 177.885 112.218 175.659 112.218C173.432 112.218 171.627 114.069 171.627 116.352C171.627 118.634 173.432 120.485 175.659 120.485Z" fill="#E6E6E6"/>
<path d="M196.065 120.485C198.291 120.485 200.096 118.634 200.096 116.352C200.096 114.069 198.291 112.218 196.065 112.218C193.838 112.218 192.033 114.069 192.033 116.352C192.033 118.634 193.838 120.485 196.065 120.485Z" fill="#E6E6E6"/>
<path d="M216.472 120.485C218.699 120.485 220.503 118.634 220.503 116.352C220.503 114.069 218.699 112.218 216.472 112.218C214.246 112.218 212.441 114.069 212.441 116.352C212.441 118.634 214.246 120.485 216.472 120.485Z" fill="#E6E6E6"/>
<path d="M236.879 120.485C239.105 120.485 240.91 118.634 240.91 116.352C240.91 114.069 239.105 112.218 236.879 112.218C234.652 112.218 232.847 114.069 232.847 116.352C232.847 118.634 234.652 120.485 236.879 120.485Z" fill="#E6E6E6"/>
<path d="M257.286 120.485C259.512 120.485 261.317 118.634 261.317 116.352C261.317 114.069 259.512 112.218 257.286 112.218C255.059 112.218 253.254 114.069 253.254 116.352C253.254 118.634 255.059 120.485 257.286 120.485Z" fill="#E6E6E6"/>
<path d="M277.692 120.485C279.918 120.485 281.723 118.634 281.723 116.352C281.723 114.069 279.918 112.218 277.692 112.218C275.466 112.218 273.661 114.069 273.661 116.352C273.661 118.634 275.466 120.485 277.692 120.485Z" fill="#E6E6E6"/>
<path d="M114.438 141.671C116.664 141.671 118.469 139.82 118.469 137.537C118.469 135.255 116.664 133.404 114.438 133.404C112.211 133.404 110.406 135.255 110.406 137.537C110.406 139.82 112.211 141.671 114.438 141.671Z" fill="#E6E6E6"/>
<path d="M354.296 51.1771C362.273 51.1771 368.74 44.5464 368.74 36.3671C368.74 28.1878 362.273 21.5571 354.296 21.5571C346.318 21.5571 339.851 28.1878 339.851 36.3671C339.851 44.5464 346.318 51.1771 354.296 51.1771Z" fill="white"/>
<path d="M134.845 141.671C137.071 141.671 138.876 139.82 138.876 137.537C138.876 135.255 137.071 133.404 134.845 133.404C132.618 133.404 130.813 135.255 130.813 137.537C130.813 139.82 132.618 141.671 134.845 141.671Z" fill="#E6E6E6"/>
<path d="M155.251 141.671C157.478 141.671 159.283 139.82 159.283 137.537C159.283 135.255 157.478 133.404 155.251 133.404C153.025 133.404 151.22 135.255 151.22 137.537C151.22 139.82 153.025 141.671 155.251 141.671Z" fill="#E6E6E6"/>
<path d="M175.659 141.671C177.885 141.671 179.69 139.82 179.69 137.537C179.69 135.255 177.885 133.404 175.659 133.404C173.432 133.404 171.627 135.255 171.627 137.537C171.627 139.82 173.432 141.671 175.659 141.671Z" fill="#E6E6E6"/>
<path d="M196.065 141.671C198.291 141.671 200.096 139.82 200.096 137.537C200.096 135.255 198.291 133.404 196.065 133.404C193.838 133.404 192.033 135.255 192.033 137.537C192.033 139.82 193.838 141.671 196.065 141.671Z" fill="#E6E6E6"/>
<path d="M216.472 141.671C218.699 141.671 220.503 139.82 220.503 137.537C220.503 135.255 218.699 133.404 216.472 133.404C214.246 133.404 212.441 135.255 212.441 137.537C212.441 139.82 214.246 141.671 216.472 141.671Z" fill="#E6E6E6"/>
<path d="M236.879 141.671C239.105 141.671 240.91 139.82 240.91 137.537C240.91 135.255 239.105 133.404 236.879 133.404C234.652 133.404 232.847 135.255 232.847 137.537C232.847 139.82 234.652 141.671 236.879 141.671Z" fill="#E6E6E6"/>
<path d="M257.286 141.671C259.512 141.671 261.317 139.82 261.317 137.537C261.317 135.255 259.512 133.404 257.286 133.404C255.059 133.404 253.254 135.255 253.254 137.537C253.254 139.82 255.059 141.671 257.286 141.671Z" fill="#E6E6E6"/>
<path d="M277.692 141.671C279.918 141.671 281.723 139.82 281.723 137.537C281.723 135.255 279.918 133.404 277.692 133.404C275.466 133.404 273.661 135.255 273.661 137.537C273.661 139.82 275.466 141.671 277.692 141.671Z" fill="#E6E6E6"/>
<path d="M94.0314 162.857C96.2578 162.857 98.0627 161.006 98.0627 158.723C98.0627 156.44 96.2578 154.59 94.0314 154.59C91.8049 154.59 90 156.44 90 158.723C90 161.006 91.8049 162.857 94.0314 162.857Z" fill="#E6E6E6"/>
<path d="M134.845 162.857C137.071 162.857 138.876 161.006 138.876 158.723C138.876 156.44 137.071 154.59 134.845 154.59C132.618 154.59 130.813 156.44 130.813 158.723C130.813 161.006 132.618 162.857 134.845 162.857Z" fill="#E6E6E6"/>
<path d="M155.251 162.857C157.478 162.857 159.283 161.006 159.283 158.723C159.283 156.44 157.478 154.59 155.251 154.59C153.025 154.59 151.22 156.44 151.22 158.723C151.22 161.006 153.025 162.857 155.251 162.857Z" fill="#E6E6E6"/>
<path d="M175.659 162.857C177.885 162.857 179.69 161.006 179.69 158.723C179.69 156.44 177.885 154.59 175.659 154.59C173.432 154.59 171.627 156.44 171.627 158.723C171.627 161.006 173.432 162.857 175.659 162.857Z" fill="#E6E6E6"/>
<path d="M196.065 162.857C198.291 162.857 200.096 161.006 200.096 158.723C200.096 156.44 198.291 154.59 196.065 154.59C193.838 154.59 192.033 156.44 192.033 158.723C192.033 161.006 193.838 162.857 196.065 162.857Z" fill="#E6E6E6"/>
<path d="M216.472 162.857C218.699 162.857 220.503 161.006 220.503 158.723C220.503 156.44 218.699 154.59 216.472 154.59C214.246 154.59 212.441 156.44 212.441 158.723C212.441 161.006 214.246 162.857 216.472 162.857Z" fill="#E6E6E6"/>
<path d="M236.879 162.857C239.105 162.857 240.91 161.006 240.91 158.723C240.91 156.44 239.105 154.59 236.879 154.59C234.652 154.59 232.847 156.44 232.847 158.723C232.847 161.006 234.652 162.857 236.879 162.857Z" fill="#E6E6E6"/>
<path d="M257.286 162.857C259.512 162.857 261.317 161.006 261.317 158.723C261.317 156.44 259.512 154.59 257.286 154.59C255.059 154.59 253.254 156.44 253.254 158.723C253.254 161.006 255.059 162.857 257.286 162.857Z" fill="#E6E6E6"/>
<path d="M277.692 162.857C279.918 162.857 281.723 161.006 281.723 158.723C281.723 156.44 279.918 154.59 277.692 154.59C275.466 154.59 273.661 156.44 273.661 158.723C273.661 161.006 275.466 162.857 277.692 162.857Z" fill="#E6E6E6"/>
<path d="M326.915 0.858225C328.267 0.858225 329.563 1.40879 330.519 2.38882C331.475 3.36884 332.012 4.69803 332.012 6.08399V215.114C332.012 215.801 331.88 216.48 331.624 217.114C331.368 217.748 330.992 218.324 330.519 218.81C330.046 219.295 329.484 219.68 328.865 219.942C328.247 220.205 327.584 220.34 326.915 220.34H180.637C179.968 220.34 179.305 220.205 178.686 219.942C178.068 219.68 177.506 219.295 177.033 218.81C176.56 218.324 176.184 217.748 175.928 217.114C175.672 216.48 175.54 215.801 175.54 215.114V6.08398C175.54 4.69802 176.077 3.36883 177.033 2.38881C177.989 1.40878 179.285 0.858215 180.637 0.858215H326.915" fill="#E6E6E6"/>
<path d="M181.23 214.506H326.321V6.69238H181.23V214.506Z" fill="white"/>
<path d="M294.04 39.5707C294.174 39.5707 294.307 39.5977 294.43 39.6502C294.554 39.7028 294.666 39.7798 294.761 39.8768C294.856 39.9739 294.931 40.0891 294.982 40.2159C295.033 40.3427 295.06 40.4786 295.06 40.6158V42.7061C295.06 42.9833 294.952 43.2492 294.761 43.4452C294.57 43.6412 294.311 43.7513 294.04 43.7513H213.511C213.377 43.7513 213.245 43.7243 213.121 43.6717C212.997 43.6192 212.885 43.5422 212.79 43.4452C212.696 43.3481 212.621 43.2329 212.569 43.1061C212.518 42.9793 212.492 42.8434 212.492 42.7061V40.6158C212.492 40.4786 212.518 40.3427 212.569 40.2159C212.621 40.0891 212.696 39.9739 212.79 39.8768C212.885 39.7798 212.997 39.7028 213.121 39.6502C213.245 39.5977 213.377 39.5707 213.511 39.5707H294.04" fill="#E6E6E6"/>
<path d="M294.04 49.4995C294.311 49.4995 294.57 49.6096 294.761 49.8056C294.952 50.0016 295.06 50.2675 295.06 50.5447V52.635C295.06 52.9122 294.952 53.178 294.761 53.374C294.57 53.57 294.311 53.6801 294.04 53.6801H213.511C213.377 53.6801 213.245 53.6531 213.121 53.6006C212.997 53.548 212.885 53.4711 212.79 53.374C212.696 53.277 212.621 53.1618 212.569 53.035C212.518 52.9082 212.492 52.7722 212.492 52.635V50.5447C212.492 50.4074 212.518 50.2715 212.569 50.1447C212.621 50.0179 212.696 49.9027 212.79 49.8056C212.885 49.7086 212.997 49.6316 213.121 49.5791C213.245 49.5265 213.377 49.4995 213.511 49.4995H294.04" fill="#E6E6E6"/>
<path d="M294.04 59.4285C294.311 59.4285 294.57 59.5386 294.761 59.7346C294.952 59.9306 295.06 60.1965 295.06 60.4737V62.564C295.06 62.8412 294.952 63.107 294.761 63.303C294.57 63.499 294.311 63.6091 294.04 63.6091H213.511C213.241 63.6091 212.981 63.499 212.79 63.303C212.599 63.107 212.492 62.8412 212.492 62.564V60.4737C212.492 60.1965 212.599 59.9306 212.79 59.7346C212.981 59.5386 213.241 59.4285 213.511 59.4285H294.04" fill="#6C63FF"/>
<path d="M294.04 69.5748C294.311 69.5748 294.57 69.6849 294.761 69.8809C294.952 70.0769 295.06 70.3428 295.06 70.62V72.7103C295.06 72.9875 294.952 73.2533 294.761 73.4493C294.57 73.6453 294.311 73.7554 294.04 73.7554H213.511C213.377 73.7554 213.245 73.7284 213.121 73.6758C212.997 73.6233 212.885 73.5463 212.79 73.4493C212.696 73.3522 212.621 73.237 212.569 73.1102C212.518 72.9834 212.492 72.8475 212.492 72.7103V70.62C212.492 70.4827 212.518 70.3468 212.569 70.22C212.621 70.0932 212.696 69.978 212.79 69.8809C212.885 69.7839 212.997 69.7069 213.121 69.6544C213.245 69.6019 213.377 69.5748 213.511 69.5748H294.04" fill="#E6E6E6"/>
<path d="M294.04 79.5037C294.311 79.5037 294.57 79.6138 294.761 79.8098C294.952 80.0058 295.06 80.2716 295.06 80.5488V82.6392C295.06 82.7764 295.033 82.9123 294.982 83.0391C294.931 83.1659 294.856 83.2811 294.761 83.3782C294.666 83.4752 294.554 83.5522 294.43 83.6048C294.307 83.6573 294.174 83.6843 294.04 83.6843H213.511C213.377 83.6843 213.245 83.6573 213.121 83.6048C212.997 83.5522 212.885 83.4753 212.79 83.3782C212.696 83.2811 212.621 83.1659 212.569 83.0391C212.518 82.9123 212.492 82.7764 212.492 82.6392V80.5488C212.492 80.4116 212.518 80.2757 212.569 80.1489C212.621 80.0221 212.696 79.9068 212.79 79.8098C212.885 79.7127 212.997 79.6358 213.121 79.5832C213.245 79.5307 213.377 79.5037 213.511 79.5037H294.04" fill="#E6E6E6"/>
<path d="M294.04 89.4326C294.311 89.4326 294.57 89.5427 294.761 89.7387C294.952 89.9347 295.06 90.2006 295.06 90.4778V92.5681C295.06 92.8453 294.952 93.1111 294.761 93.3071C294.57 93.5031 294.311 93.6132 294.04 93.6132H213.511C213.241 93.6132 212.981 93.5031 212.79 93.3071C212.599 93.1111 212.492 92.8453 212.492 92.5681V90.4778C212.492 90.2006 212.599 89.9347 212.79 89.7387C212.981 89.5427 213.241 89.4326 213.511 89.4326H294.04" fill="#E6E6E6"/>
<path d="M214.026 122.833C213.712 122.833 213.411 122.961 213.189 123.189C212.968 123.416 212.843 123.725 212.843 124.046V180.414C212.843 180.736 212.968 181.044 213.19 181.272C213.411 181.499 213.712 181.627 214.026 181.628H293.39C293.703 181.627 294.004 181.499 294.226 181.272C294.448 181.044 294.573 180.736 294.573 180.414V124.046C294.573 123.725 294.448 123.416 294.226 123.189C294.004 122.961 293.703 122.833 293.39 122.833H214.026Z" fill="#6C63FF"/>
<path d="M254.617 61.5841L253.965 61.5015L268.202 35.9667H350.782V36.2886H268.721L254.617 61.5841Z" fill="#3F3D56"/>
<path d="M354.227 45.9C352.438 45.9 350.688 45.356 349.2 44.3367C347.713 43.3174 346.553 41.8686 345.868 40.1736C345.183 38.4786 345.004 36.6134 345.353 34.8139C345.702 33.0145 346.564 31.3616 347.829 30.0643C349.095 28.767 350.707 27.8835 352.462 27.5255C354.217 27.1676 356.036 27.3513 357.689 28.0534C359.342 28.7555 360.755 29.9445 361.75 31.47C362.744 32.9955 363.274 34.789 363.274 36.6237C363.272 39.0831 362.318 41.4409 360.621 43.18C358.925 44.919 356.626 45.8972 354.227 45.9ZM354.227 28.2308C352.608 28.2308 351.025 28.723 349.679 29.6452C348.333 30.5674 347.284 31.8782 346.664 33.4118C346.045 34.9454 345.883 36.633 346.198 38.261C346.514 39.8891 347.294 41.3846 348.439 42.5584C349.583 43.7321 351.042 44.5315 352.63 44.8553C354.218 45.1792 355.864 45.0129 357.359 44.3777C358.855 43.7425 360.134 42.6667 361.033 41.2865C361.933 39.9063 362.413 38.2836 362.413 36.6237C362.41 34.3985 361.547 32.2652 360.012 30.6918C358.478 29.1184 356.397 28.2333 354.227 28.2308Z" fill="#3F3D56"/>
<path d="M354.229 39.8323C356.132 39.8323 357.676 38.2501 357.676 36.2984C357.676 34.3468 356.132 32.7646 354.229 32.7646C352.325 32.7646 350.782 34.3468 350.782 36.2984C350.782 38.2501 352.325 39.8323 354.229 39.8323Z" fill="#6C63FF"/>
<path d="M151.595 220.091L150.901 219.878L166.15 154.447L253.965 154.64L253.963 155.465L166.7 155.273L151.595 220.091Z" fill="#3F3D56"/>
<path d="M150.906 226.423C152.81 226.423 154.353 224.841 154.353 222.89C154.353 220.938 152.81 219.356 150.906 219.356C149.003 219.356 147.459 220.938 147.459 222.89C147.459 224.841 149.003 226.423 150.906 226.423Z" fill="#6C63FF"/>
<path d="M280.293 127.217L266.731 104.268V78.4159H269.512V72.7916H239.642V78.4159H242.571V104.268L229.009 127.217C225.398 133.327 228.145 138.325 235.112 138.325H274.189C281.157 138.325 283.903 133.326 280.293 127.217Z" fill="#B4C0DD"/>
<path d="M280.293 127.217L266.731 104.268V78.4159H269.513V72.7916H254.536V138.325H274.19C281.157 138.325 283.904 133.326 280.293 127.217Z" fill="#A5B9C5"/>
<path d="M235.113 134.236C232.977 134.236 231.869 133.6 231.569 133.055C231.27 132.51 231.313 131.209 232.421 129.335L246.56 105.41V94.6049H262.74V105.41L276.88 129.335C277.988 131.209 278.03 132.51 277.731 133.055C277.432 133.6 276.324 134.236 274.188 134.236H235.113Z" fill="#6C63FF"/>
<path d="M272.204 129.336L261.024 105.41V94.605H254.536V134.236H270.076C271.765 134.236 272.64 133.6 272.878 133.055C273.114 132.51 273.08 131.209 272.204 129.336Z" fill="#1C2468"/>
<g clip-path="url(#clip0)">
<path d="M60.5827 186.987C60.5827 186.987 58.2775 164.302 41.8132 168.141" stroke="#20008C" stroke-width="0.7"/>
<path fill-rule="evenodd" clip-rule="evenodd" d="M38.0178 165.682C34.312 167.242 31.9175 176.941 33.9044 182.043C35.8913 187.145 46.6835 177.896 47.3396 172.633C47.9956 167.369 43.5776 167.878 43.5776 167.878C43.5776 167.878 41.7237 164.123 38.0178 165.682Z" fill="url(#paint0_linear)"/>
<path fill-rule="evenodd" clip-rule="evenodd" d="M39.3401 147.832C34.6297 149.823 31.5861 162.21 34.1116 168.725C36.637 175.24 50.3548 163.43 51.1887 156.708C52.0226 149.986 46.407 150.635 46.407 150.635C46.407 150.635 44.0505 145.84 39.3401 147.832Z" fill="url(#paint1_linear)"/>
<path d="M46.4072 150.635C46.4072 150.635 58.6208 145.786 63.7485 156.102C68.8762 166.418 63.7485 186.987 63.7485 186.987" stroke="#20008C" stroke-width="0.7"/>
<path d="M71.1712 186.987C71.1712 186.987 73.4764 164.302 89.9407 168.141" stroke="#20008C" stroke-width="0.7"/>
<path fill-rule="evenodd" clip-rule="evenodd" d="M93.7363 165.682C97.4421 167.242 99.8366 176.941 97.8498 182.043C95.8629 187.145 85.0707 177.896 84.4146 172.633C83.7586 167.369 88.1765 167.878 88.1765 167.878C88.1765 167.878 90.0305 164.123 93.7363 165.682Z" fill="url(#paint2_linear)"/>
<path fill-rule="evenodd" clip-rule="evenodd" d="M92.4138 147.832C97.1242 149.823 100.168 162.21 97.6423 168.725C95.1169 175.24 81.3991 163.43 80.5652 156.708C79.7313 149.986 85.3469 150.635 85.3469 150.635C85.3469 150.635 87.7034 145.84 92.4138 147.832Z" fill="url(#paint3_linear)"/>
<path d="M64.0383 139.556C64.0383 139.556 78.043 131.532 67.7873 187.877" stroke="#20008C" stroke-width="0.7"/>
<path fill-rule="evenodd" clip-rule="evenodd" d="M59.0454 136.893C55.3396 138.453 52.9451 148.152 54.932 153.254C56.9188 158.356 67.7111 149.108 68.3671 143.844C69.0232 138.58 64.6052 139.089 64.6052 139.089C64.6052 139.089 62.7513 135.334 59.0454 136.893Z" fill="url(#paint4_linear)"/>
<path fill-rule="evenodd" clip-rule="evenodd" d="M52.1232 191.166C51.6953 189.002 53.3511 186.987 55.5567 186.987H80.0177C82.2233 186.987 83.8791 189.002 83.4512 191.166L78.9984 213.678C78.6741 215.318 77.2361 216.499 75.5649 216.499H60.0095C58.3384 216.499 56.9003 215.318 56.576 213.678L52.1232 191.166Z" fill="#ACA6E2"/>
<path d="M85.3469 150.635C85.3469 150.635 73.1333 145.786 68.0056 156.102C62.878 166.418 68.0056 186.987 68.0056 186.987" stroke="#20008C" stroke-width="0.7"/>
<path d="M68.7049 186.987C68.7049 186.987 50.509 161.553 67.7872 157.175" stroke="#20008C" stroke-width="0.7"/>
<path fill-rule="evenodd" clip-rule="evenodd" d="M67.8485 157.272C67.8485 157.272 60.7753 152.247 57.1827 157.932C53.5901 163.616 64.7858 179.575 70.9042 179.154C77.0226 178.732 82.6802 159.963 77.823 155.908C72.9658 151.854 67.8485 157.272 67.8485 157.272Z" fill="url(#paint5_linear)"/>
<g clip-path="url(#clip1)">
<path fill-rule="evenodd" clip-rule="evenodd" d="M109.49 119.321H176.203V216.165H109.49V119.321Z" fill="#D4CDFF"/>
<path fill-rule="evenodd" clip-rule="evenodd" d="M109.49 158.56H75.7171V216.165H109.49V158.56Z" fill="#ACA6E2"/>
<path fill-rule="evenodd" clip-rule="evenodd" d="M201.22 119.321H176.203V216.165H201.22V119.321Z" fill="#ACA6E2"/>
<path fill-rule="evenodd" clip-rule="evenodd" d="M209.977 158.56H176.203V216.165H209.977V158.56Z" fill="#D4CDFF"/>
<rect x="182.875" y="164.404" width="4.16955" height="8.34862" fill="#ACA6E2"/>
<rect x="191.214" y="164.404" width="4.16955" height="8.34862" fill="#ACA6E2"/>
<rect x="199.553" y="164.404" width="4.16955" height="8.34862" fill="#ACA6E2"/>
<rect x="182.875" y="176.927" width="4.16955" height="8.34863" fill="#ACA6E2"/>
<rect x="191.214" y="176.927" width="4.16955" height="8.34863" fill="#ACA6E2"/>
<rect x="199.553" y="176.927" width="4.16955" height="8.34863" fill="#ACA6E2"/>
<rect x="182.875" y="189.45" width="4.16955" height="8.34863" fill="#ACA6E2"/>
<rect x="191.214" y="189.45" width="4.16955" height="8.34863" fill="#ACA6E2"/>
<rect x="199.553" y="189.45" width="4.16955" height="8.34863" fill="#ACA6E2"/>
<rect x="182.875" y="201.972" width="4.16955" height="8.34863" fill="#ACA6E2"/>
<rect x="191.214" y="201.972" width="4.16955" height="8.34863" fill="#ACA6E2"/>
<rect x="199.553" y="201.972" width="4.16955" height="8.34863" fill="#ACA6E2"/>
<path fill-rule="evenodd" clip-rule="evenodd" d="M209.977 158.56H236.245V216.165H209.977V158.56Z" fill="#ACA6E2"/>
<path d="M176.203 119.321V216.165" stroke="#EEEBFF"/>
<rect x="212.895" y="164.404" width="4.16956" height="8.34862" fill="#D4CDFF"/>
<rect x="221.234" y="164.404" width="4.16956" height="8.34862" fill="#D4CDFF"/>
<rect x="229.573" y="164.404" width="4.16956" height="8.34862" fill="#D4CDFF"/>
<rect x="212.895" y="176.927" width="4.16956" height="8.34863" fill="#D4CDFF"/>
<rect x="221.234" y="176.927" width="4.16956" height="8.34863" fill="#D4CDFF"/>
<rect x="229.573" y="176.927" width="4.16956" height="8.34863" fill="#D4CDFF"/>
<rect x="212.895" y="189.45" width="4.16956" height="8.34863" fill="#D4CDFF"/>
<rect x="221.234" y="189.45" width="4.16956" height="8.34863" fill="#D4CDFF"/>
<rect x="229.573" y="189.45" width="4.16956" height="8.34863" fill="#D4CDFF"/>
<rect x="212.895" y="201.972" width="4.16956" height="8.34863" fill="#D4CDFF"/>
<rect x="221.234" y="201.972" width="4.16956" height="8.34863" fill="#D4CDFF"/>
<rect x="229.573" y="201.972" width="4.16956" height="8.34863" fill="#D4CDFF"/>
<path d="M188.712 119.321V158.56" stroke="#EEEBFF"/>
<path d="M201.22 119.321V158.56" stroke="#EEEBFF"/>
<path d="M159.525 119.321V216.165" stroke="#EEEBFF"/>
<path d="M126.169 119.321V216.165" stroke="#EEEBFF"/>
<path d="M109.49 208.651H176.42" stroke="white"/>
<path fill-rule="evenodd" clip-rule="evenodd" d="M134.091 198.216H151.603V216.165H134.091V198.216Z" fill="#ACA6E2"/>
<path fill-rule="evenodd" clip-rule="evenodd" d="M109.49 119.321H176.203V133.514H109.49V119.321Z" fill="#EEEBFF"/>
<path d="M142.847 119.321V216.165" stroke="#EEEBFF"/>
<path d="M109.49 141.862H201.221" stroke="white"/>
<path d="M109.49 158.56H201.221" stroke="white"/>
<path d="M109.49 175.257H176.42" stroke="white"/>
<path d="M109.49 191.954H176.42" stroke="white"/>
<rect x="82.3884" y="164.404" width="4.16955" height="8.34862" fill="#D4CDFF"/>
<rect x="90.7275" y="164.404" width="4.16955" height="8.34862" fill="#D4CDFF"/>
<rect x="99.0667" y="164.404" width="4.16955" height="8.34862" fill="#D4CDFF"/>
<rect x="82.3884" y="176.927" width="4.16955" height="8.34863" fill="#D4CDFF"/>
<rect x="90.7275" y="176.927" width="4.16955" height="8.34863" fill="#D4CDFF"/>
<rect x="99.0667" y="176.927" width="4.16955" height="8.34863" fill="#D4CDFF"/>
<rect x="82.3884" y="189.45" width="4.16955" height="8.34863" fill="#D4CDFF"/>
<rect x="90.7275" y="189.45" width="4.16955" height="8.34863" fill="#D4CDFF"/>
<rect x="99.0667" y="189.45" width="4.16955" height="8.34863" fill="#D4CDFF"/>
<rect x="82.3884" y="201.972" width="4.16955" height="8.34863" fill="#D4CDFF"/>
<rect x="90.7275" y="201.972" width="4.16955" height="8.34863" fill="#D4CDFF"/>
<rect x="99.0667" y="201.972" width="4.16955" height="8.34863" fill="#D4CDFF"/>
<path fill-rule="evenodd" clip-rule="evenodd" d="M122.833 130.592C125.136 130.592 127.002 128.723 127.002 126.417C127.002 124.112 125.136 122.243 122.833 122.243C120.53 122.243 118.663 124.112 118.663 126.417C118.663 128.723 120.53 130.592 122.833 130.592Z" fill="#ACA6E2"/>
</g>
<path d="M43.7542 65.6483C43.7542 62.027 44.9168 58.3677 47.242 54.6702C49.5672 50.9346 52.9598 47.847 57.4196 45.4074C61.8795 42.9678 67.0827 41.748 73.0291 41.748C78.5563 41.748 83.4355 42.7772 87.6666 44.8356C91.8978 46.8559 95.1569 49.6195 97.444 53.1264C99.7693 56.6333 100.932 60.4451 100.932 64.5619C100.932 67.802 100.265 70.6418 98.9307 73.0814C97.6346 75.521 96.0718 77.6366 94.2421 79.4281C92.4505 81.1816 89.2104 84.1548 84.5219 88.3479C83.2258 89.5295 82.1776 90.5778 81.3771 91.4926C80.6147 92.3694 80.043 93.1889 79.6618 93.9513C79.2806 94.6755 78.9756 95.4188 78.7469 96.1812C78.5563 96.9055 78.2514 98.2015 77.8321 100.069C77.1078 104.034 74.8398 106.016 71.0279 106.016C69.0458 106.016 67.3686 105.368 65.9963 104.072C64.6621 102.776 63.9951 100.851 63.9951 98.2968C63.9951 95.0948 64.4906 92.3312 65.4817 90.006C66.4728 87.6427 67.7879 85.5843 69.427 83.8308C71.066 82.0392 73.2769 79.9237 76.0596 77.4841C78.4992 75.3494 80.2526 73.7485 81.3199 72.6812C82.4254 71.5757 83.3402 70.3559 84.0645 69.0218C84.8268 67.6876 85.208 66.2391 85.208 64.6763C85.208 61.6268 84.0645 59.0538 81.7773 56.9573C79.5284 54.8608 76.6123 53.8125 73.0291 53.8125C68.8361 53.8125 65.7485 54.8798 63.7664 57.0145C61.7842 59.111 60.107 62.2176 58.7347 66.3344C57.4387 70.6418 54.98 72.7955 51.3588 72.7955C49.2242 72.7955 47.4135 72.0522 45.9269 70.5656C44.4784 69.0408 43.7542 67.4017 43.7542 65.6483ZM71.6569 128.315C69.3317 128.315 67.2923 127.572 65.5389 126.085C63.8235 124.56 62.9659 122.445 62.9659 119.738C62.9659 117.337 63.8045 115.317 65.4817 113.678C67.1589 112.038 69.2173 111.219 71.6569 111.219C74.0583 111.219 76.0786 112.038 77.7177 113.678C79.3568 115.317 80.1764 117.337 80.1764 119.738C80.1764 122.407 79.3187 124.503 77.6034 126.028C75.888 127.553 73.9059 128.315 71.6569 128.315Z" fill="#EEEBFF"/>
<path fill-rule="evenodd" clip-rule="evenodd" d="M58.1451 173.017L54.7067 182.267C54.7067 182.267 44.452 160.902 43.876 157.636C43.3 154.37 44.0601 149.086 37.0711 147.917C30.082 146.747 24.0611 147.313 26.5734 149.046C29.0857 150.78 32.0383 150.082 30.3152 150.896C28.5921 151.71 24.0239 151.183 24.0239 151.183L17.3618 146.029C17.002 145.751 16.4987 145.754 16.1432 146.038C15.7194 146.376 15.6476 146.992 15.9823 147.418L16.9708 148.677L15.6827 148.216C15.1405 148.022 14.5419 148.29 14.3269 148.825C14.1154 149.35 14.3491 149.949 14.8606 150.193L15.8348 150.657L15.6301 150.749C15.1327 150.974 14.7697 151.419 14.6497 151.952C14.5021 152.607 14.743 153.287 15.2821 153.688C17.5844 155.4 23.8312 159.816 26.6479 159.535C30.1368 159.188 33.7807 156.634 34.2825 158.115C34.7843 159.595 45.5287 210.235 54.8215 211.049C64.1142 211.863 72.7765 177.438 72.7765 177.438L58.1451 173.017Z" fill="#FDBBA4"/>
<path fill-rule="evenodd" clip-rule="evenodd" d="M131.002 173.874L132.783 183.582C132.783 183.582 146.588 164.324 147.722 161.208C148.855 158.092 149.023 152.756 156.109 152.819C163.195 152.883 169.026 154.486 166.251 155.757C163.476 157.027 160.69 155.827 162.245 156.928C163.801 158.029 168.391 158.304 168.391 158.304L175.846 154.387C176.249 154.175 176.744 154.266 177.045 154.607C177.404 155.013 177.367 155.633 176.964 155.995L175.772 157.063L177.121 156.832C177.688 156.735 178.231 157.104 178.35 157.667C178.467 158.222 178.133 158.771 177.587 158.922L176.547 159.21L176.733 159.336C177.184 159.644 177.464 160.146 177.49 160.691C177.522 161.362 177.166 161.99 176.566 162.291C174.002 163.576 167.084 166.839 164.359 166.073C160.983 165.125 157.837 161.976 157.086 163.347C156.335 164.718 136.971 212.721 127.678 211.907C118.385 211.093 114.741 178.268 114.741 178.268L131.002 173.874Z" fill="#FDBBA4"/>
<path fill-rule="evenodd" clip-rule="evenodd" d="M57.134 173.147C57.134 173.147 65.7193 152.271 75.4945 150.869C85.2696 149.467 113.31 151.982 119.511 155.55C125.713 159.118 131.719 174.393 131.719 174.393L116.722 181.187L115.51 210.841L75.8127 207.364L71.7584 177.984L57.134 173.147Z" fill="#EEEBFF"/>
<path fill-rule="evenodd" clip-rule="evenodd" d="M118.398 216.324L74.9594 216.324L75.8126 207.364L115.51 210.841L118.398 216.324Z" fill="#2223AC"/>
<path fill-rule="evenodd" clip-rule="evenodd" d="M71.9987 146.538C71.9987 146.538 74.1484 137.289 78.1714 134.782C82.1944 132.275 77.2997 132.098 76.0679 126.474C74.8361 120.85 73.5882 109.962 88.0402 109.509C102.492 109.055 105.618 122.594 109.855 128.327C114.092 134.06 122.881 132.184 122.891 147.079C122.891 147.079 109.922 152.519 92.342 150.98C74.762 149.44 71.9987 146.538 71.9987 146.538Z" fill="#062721"/>
<path fill-rule="evenodd" clip-rule="evenodd" d="M96.876 111.634C99.4077 111.856 101.64 109.98 101.861 107.444C102.083 104.908 100.21 102.673 97.6785 102.451C95.1468 102.229 92.9148 104.105 92.6932 106.641C92.4716 109.177 94.3443 111.413 96.876 111.634Z" fill="#062721"/>
<path d="M79.4921 133.679C79.4921 133.679 73.0278 137.349 71.3358 146.152" stroke="#062721"/>
<path d="M122.123 146.643C122.123 146.643 124.978 136.892 118.114 132.925C111.251 128.958 111.675 130.169 106.969 121.356C102.263 112.543 96.5925 111.436 96.5925 111.436C96.5925 111.436 103.014 113.443 101.459 105.453" stroke="#062721"/>
<path fill-rule="evenodd" clip-rule="evenodd" d="M84.3652 124.031C80.166 122.044 78.8077 119.625 78.8077 119.625C78.8077 119.625 78.5099 121.165 77.8372 122.221C77.0974 123.382 76.4943 123.848 76.5115 124.031C77.6504 136.173 81.0861 146.258 88.5645 144.413L89.307 150.522L84.3652 150.433C84.3652 150.433 87.2855 158.378 93.4291 158.601C99.5728 158.824 106.452 152.22 106.452 152.22L102.642 151.057L99.988 130.999C99.988 130.999 103.373 126.859 101.037 125.316C99.6325 124.388 98.4504 125.844 98.4504 125.844C98.4504 125.844 88.5645 126.018 84.3652 124.031Z" fill="#FDBBA4"/>
<path fill-rule="evenodd" clip-rule="evenodd" d="M88.5644 144.413C88.5644 144.413 93.1026 143.529 94.8416 139.862C94.8416 139.862 93.066 147.888 89.307 150.522L88.5644 144.413Z" fill="#E9A38B"/>
</g>
<defs>
<linearGradient id="paint0_linear" x1="32.3349" y1="165.225" x2="32.3349" y2="185.722" gradientUnits="userSpaceOnUse">
<stop stop-color="#BFBDFF"/>
<stop offset="1" stop-color="#EFEDFF"/>
</linearGradient>
<linearGradient id="paint1_linear" x1="32.1167" y1="147.247" x2="32.1167" y2="173.424" gradientUnits="userSpaceOnUse">
<stop stop-color="#BFBDFF"/>
<stop offset="1" stop-color="#EFEDFF"/>
</linearGradient>
<linearGradient id="paint2_linear" x1="99.4192" y1="165.225" x2="99.4192" y2="185.722" gradientUnits="userSpaceOnUse">
<stop stop-color="#BFBDFF"/>
<stop offset="1" stop-color="#EFEDFF"/>
</linearGradient>
<linearGradient id="paint3_linear" x1="99.6372" y1="147.247" x2="99.6372" y2="173.424" gradientUnits="userSpaceOnUse">
<stop stop-color="#BFBDFF"/>
<stop offset="1" stop-color="#EFEDFF"/>
</linearGradient>
<linearGradient id="paint4_linear" x1="53.3625" y1="136.436" x2="53.3625" y2="156.933" gradientUnits="userSpaceOnUse">
<stop stop-color="#BFBDFF"/>
<stop offset="1" stop-color="#EFEDFF"/>
</linearGradient>
<linearGradient id="paint5_linear" x1="55.0994" y1="154.173" x2="55.0994" y2="182.155" gradientUnits="userSpaceOnUse">
<stop stop-color="#BFBDFF"/>
<stop offset="1" stop-color="#EFEDFF"/>
</linearGradient>
<clipPath id="clip0">
<rect y="35" width="241" height="182" fill="white"/>
</clipPath>
<clipPath id="clip1">
<rect x="75.717" y="119.321" width="160.528" height="96.844" fill="white"/>
</clipPath>
</defs>
</svg>
