<svg width="17" height="27" viewBox="0 0 17 27" fill="none" xmlns="http://www.w3.org/2000/svg">
<path d="M6.44478 26.4144H10.912C11.9713 26.4144 12.0288 25.8955 12.0288 25.2614L13.6387 15.7249L14.7297 18.5967C15.7893 18.5967 16.6556 18.4198 16.6556 17.7858V10.6558C16.6556 10.0216 15.7893 9.50269 14.7297 9.50269H2.30798C1.24874 9.50269 0.38208 10.0216 0.38208 10.6558V17.7858C0.38208 18.4198 1.24874 18.5967 2.30798 18.5967L3.39933 15.7249L5.3307 25.2614C5.3307 25.8955 5.35344 26.4144 6.44478 26.4144Z" fill="#E13500"/>
<path d="M8.53485 10.9066C11.3016 10.9066 13.5446 8.6637 13.5446 5.89691C13.5446 3.13013 11.3016 0.887207 8.53485 0.887207C5.76807 0.887207 3.52515 3.13013 3.52515 5.89691C3.52515 8.6637 5.76807 10.9066 8.53485 10.9066Z" fill="#E13500"/>
</svg>
